<svg xmlns="http://www.w3.org/2000/svg" version="1.1" viewBox="-5.0 -10.0 110.0 135.0">
 <path d="m89.621 22.703c-7.6875-7.0977-28.016-7.0703-38.793-7.0781h-1.6523c-10.805 0.019531-31.109-0.019531-38.793 7.0781-7.1758 6.6211-7.2578 27.094-7.2578 27.297s0.082031 20.676 7.2539 27.297c7.6875 7.0977 27.98 7.0586 38.793 7.0781h2.6602c11.074 0 30.336-0.19531 37.785-7.0781 7.1758-6.6211 7.2578-27.094 7.2578-27.297s-0.082031-20.676-7.2539-27.297zm-4.2422 50c-5.8867 5.4414-26.066 5.4062-34.551 5.4219h-1.6602c-8.4805-0.007812-28.664 0.019531-34.551-5.4219-3.4219-3.1602-5.2422-15.215-5.2422-22.703s1.8203-19.543 5.2461-22.703c5.8867-5.4414 26.059-5.4297 34.551-5.4219h1.6602c8.4922 0 28.664-0.019531 34.551 5.4219 3.4219 3.1602 5.2422 15.215 5.2422 22.703s-1.8203 19.543-5.2461 22.703zm-20.219-26.68-20.484-12.801c-1.4453-0.90234-3.2656-0.95312-4.7578-0.12891-1.4922 0.82812-2.418 2.3984-2.418 4.1016v25.609c0 1.7031 0.92578 3.2734 2.4141 4.1016 1.4922 0.82422 3.3125 0.77734 4.7578-0.12891l20.488-12.801h-0.003906c1.375-0.85547 2.207-2.3594 2.207-3.9727 0-1.6172-0.83203-3.1211-2.2031-3.9766zm-21.41 13.961v-19.969l15.977 9.9844z"/>
<text x="0.0" y="117.5" font-size="5.0" font-weight="bold" font-family="Arbeit Regular, Helvetica, Arial-Unicode, Arial, Sans-serif" fill="#000000">Created by Ricons</text><text x="0.0" y="122.5" font-size="5.0" font-weight="bold" font-family="Arbeit Regular, Helvetica, Arial-Unicode, Arial, Sans-serif" fill="#000000">from Noun Project</text></svg>